<svg width="300" height="300" fill="none" xmlns="http://www.w3.org/2000/svg"><path fill-rule="evenodd" clip-rule="evenodd" d="M124 64.1a516.3 516.3 0 0018.8-8.4L177.5 41l12.7-5.6 12.7-5.5c1.8-1 1.8-1.5 1.5-3a9 9 0 00-5-5.4h-3.7c-4.8 1.6-9.5 3.8-14.2 6a484 484 0 01-4 1.8c-11.4 4.8-22.7 9.6-34 14.7l-24.6 10.8c-10.1 4.5-20.6 9-31 13.3a59.7 59.7 0 01-36.5 3.6c-4.5-1.2-9-2.4-13.2-4.8-.6-.3-1.2-.7-1.2-1.3 0-.7.7-.6 1-.6h.2l8-3.6 7.9-3.6c3.3-1.3 6.5-2.7 9.7-4.2l9.7-4.2c5-2 10-4.3 15.1-6.5 6-2.6 12-5.2 18-7.6 5-2.1 9.9-4.3 14.7-6.5l14.7-6.4c2-1 4.1-1.2 6.5.3 3 1.8 6.3 3 9.6 4.2 1.5.6 3 .6 2.7-2.1-.3-2.6-.2-5.2-.1-7.8 0-3.4.2-6.8-.5-10.3-1-5-6-7.8-9.9-6.3-4.6 1.5-9.1 3.4-13.7 5.4L125 8.2l-12 5.3c-4 1.8-7.9 3.6-12 5.3-7.6 3-15.3 6.4-22.9 9.8l-6.3 2.8a541.4 541.4 0 01-25.3 10.8c-5.9 2.5-11.8 4.9-17.1 7.8-5.4 3-9.3 7-9.3 13.8V237c0 5.7 2.7 10.2 6.9 13.5A66.4 66.4 0 0070.2 262l5.4-.3c3.9-.3 4.2-.6 4.2-4.6V103c0-12 6-20.7 16.1-26.1 6.4-3.4 13-6.2 19.7-9L124 64zM279.1 69v-1.5c-.9-6-6-9-11-7l-4.3 2c-4.5 2-8.8 4-13.4 5.9L237.3 74l-17.4 7.3c-3.3 1.3-6.5 2.8-9.8 4.3a282 282 0 01-9.9 4.4l-29.9 12.6-6 2.7c-3.1 1.5-6.2 2.9-9.2 4-7.5 2.6-15 3-22.7 1.7a52.2 52.2 0 01-21.6-7.2c5.1-2 10.2-4.2 15-6.6l19.6-8.5c8.5-3.6 17-7.3 25.2-11l31-13.6 7.6-3.3 1.2-.5c1.6-.8 3.2-1.6 5.3-.7 4.2 2.1 8.4 4 13.2 5.7V44.6c0-4.8-5.4-8.4-9.9-7-2.6 1-5.2 2.3-7.7 3.4l-6 2.7c-7 2.8-13.9 5.9-20.7 9a1188 1188 0 01-28 12.3c-6 2.7-12.1 5.2-18.2 7.8l-10.8 4.6L119 81l-11.8 5C100 89.5 94 94.6 94 104.8c.2 37.5.1 75.1 0 112.7v56.3c0 2 .3 3.9 1.2 6 2.7 7.5 8.7 11.4 15.5 14.1 7.5 3 15 4.8 23 5.7 8.1 1 15.9.6 23.7-1.8 6.9-2.2 13.5-5.2 20.1-8.2l13-5.6 16.2-7.2 8.6-4c11.4-4.7 22.8-9.5 34.4-14.7 8-3.6 16.2-7.2 24.2-10.5 3.6-1.5 6-4.8 6-8.7-.9-56-.9-112.7-.9-169.8z" fill="#474787"/><path d="M233.8 160.8a28 28 0 00-14.9 19l-8.3 3.6c-10.6 4.6-19.3-1.1-19.3-12.7v-.7a28 28 0 0011.6-21.2c0-9.3-7-13.8-15.5-10.2a27.7 27.7 0 00-15.4 23.5c0 7.8 5 12.2 11.6 11.3v34.8a28 28 0 00-11.6 21.2c0 9.3 6.9 13.9 15.4 10.2A27.7 27.7 0 00203 216c0-7.8-5-12.2-11.6-11.2v-13.7c5 3.4 11.7 3.8 19.3.6l8.3-3.6c1.7 6.5 7.7 9.3 15 6.2a27.7 27.7 0 0015.4-23.4c0-9.3-7-13.9-15.5-10.2z" fill="#fff"/></svg>