<svg width="308" height="114" fill="none" xmlns="http://www.w3.org/2000/svg"><path fill-rule="evenodd" clip-rule="evenodd" d="M47.1 24.4a195.7 195.7 0 007.2-3.2l13.1-5.6 4.9-2.1 4.8-2.1c.7-.4.7-.6.6-1.2-.4-1-1-1.6-2-2h-1.3a53 53 0 00-5.4 2.2l-1.6.7-12.9 5.6A751.3 751.3 0 0133.4 26a22.7 22.7 0 01-13.9 1.3c-1.7-.4-3.4-.9-5-1.8-.2-.1-.4-.2-.4-.5 0-.2.2-.2.4-.2l3-1.4 3-1.3 3.7-1.6a143.3 143.3 0 019.5-4l6.8-3 5.6-2.4 5.6-2.5c.8-.3 1.6-.5 2.5.1 1.1.7 2.3 1.2 3.6 1.6.6.2 1.1.2 1-.8v-3c0-1.2 0-2.5-.2-3.8-.4-2-2.3-3-3.8-2.4-1.7.5-3.4 1.3-5.2 2l-2.1 1-4.6 2-4.5 2c-3 1-5.9 2.4-8.8 3.7l-2.4 1-7.3 3.2-2.3 1c-2.2.9-4.4 1.8-6.5 3-2 1-3.5 2.5-3.5 5.2V90c0 2.1 1 3.8 2.6 5.1a25.2 25.2 0 0016.5 4.4l2-.2c1.5 0 1.6-.2 1.6-1.7V39.1c0-4.6 2.3-7.9 6.1-10l7.5-3.4 3.2-1.3zm59 1.8v-.6c-.4-2.3-2.3-3.4-4.2-2.6l-1.7.7-5 2.3-5 2.1-6.6 2.8-3.8 1.6-3.7 1.7L64.7 39l-2.3 1a42 42 0 01-3.5 1.5 17 17 0 01-8.6.7c-2.8-.5-5.6-1-8.2-2.7 2-.8 3.9-1.6 5.7-2.6l7.4-3.2a584 584 0 009.6-4.2l11.8-5.1 2.9-1.3.4-.2c.7-.3 1.3-.6 2-.2l5 2.1V17c0-1.8-2-3.1-3.7-2.6l-2.9 1.3-2.3 1c-2.7 1-5.3 2.2-7.8 3.4L67 21.4l-7.5 3.3-7 3-4 1.7-3.3 1.4c-1.5.6-3 1.2-4.4 2-2.8 1.2-5 3.1-5 7V104c0 .8 0 1.5.4 2.3 1 2.8 3.3 4.3 6 5.4 2.8 1 5.6 1.8 8.7 2.1 3 .4 6 .3 9-.7 2.6-.8 5-2 7.6-3a114 114 0 015-2.2l6-2.8 3.4-1.4 13-5.6 9.2-4a3.6 3.6 0 002.3-3.4c-.3-21.2-.3-42.8-.3-64.5z" fill="#474787"/><path d="M88.8 61.1c-2.7 1.2-5 4.2-5.6 7.2L80 69.7c-4 1.7-7.3-.4-7.3-4.8v-.3c2.5-1.8 4.4-5 4.4-8 0-3.6-2.6-5.3-5.9-4a10.5 10.5 0 00-5.8 9c0 3 1.8 4.7 4.4 4.3V79c-2.6 1.8-4.4 5.1-4.4 8 0 3.6 2.6 5.3 5.8 4 3.3-1.4 5.9-5.4 5.9-9 0-3-1.9-4.6-4.4-4.2v-5.2c1.9 1.2 4.5 1.4 7.3.2l3.2-1.4c.6 2.5 3 3.6 5.6 2.4 3.3-1.4 6-5.4 6-9 0-3.5-2.7-5.2-6-3.8z" fill="#fff"/><path d="M133 50V24.4h8c2.6 0 4.7.6 6 1.8 1.4 1.2 2.1 3 2.1 5.2 0 1.3-.2 2.4-.8 3.4a5 5 0 01-2.4 2c1.2.4 2 1 2.7 2 .6 1 1 2.2 1 3.7 0 2.5-.8 4.3-2.1 5.6-1.4 1.3-3.4 1.9-6 1.9h-8.4zm5.2-11.1v6.8h3.3c1 0 1.7-.3 2.1-.9.5-.5.8-1.3.8-2.4 0-2.3-.9-3.5-2.5-3.5h-3.7zm0-3.8h2.7c2 0 3-1 3-3.1 0-1.2-.2-2-.6-2.5-.5-.5-1.3-.8-2.3-.8h-2.8v6.4zM171.3 39.5a12 12 0 01-2.5 8 8.4 8.4 0 01-6.7 2.9c-2.9 0-5.1-1-6.8-2.9a11.8 11.8 0 01-2.5-7.9v-4.3c0-3.6.8-6.3 2.5-8.3 1.6-2 3.9-3 6.8-3 2.8 0 5 1 6.7 3 1.6 2 2.5 4.6 2.5 8.1v4.4zm-5.2-4.3c0-2.3-.3-4-1-5.1a3.3 3.3 0 00-3-1.7c-1.4 0-2.4.5-3 1.6-.7 1-1 2.7-1.1 5v4.5c0 2.2.3 3.9 1 5 .7 1 1.7 1.5 3.1 1.5 1.3 0 2.3-.5 3-1.5.7-1 1-2.7 1-4.8v-4.5zM193 39.5a12 12 0 01-2.4 8 8.4 8.4 0 01-6.8 2.9c-2.8 0-5.1-1-6.7-2.9a11.8 11.8 0 01-2.5-7.9v-4.3c0-3.6.8-6.3 2.4-8.3 1.6-2 3.9-3 6.8-3 2.8 0 5 1 6.7 3 1.7 2 2.5 4.6 2.5 8.1v4.4zm-5.2-4.3c0-2.3-.3-4-1-5.1a3.3 3.3 0 00-3-1.7c-1.4 0-2.4.5-3 1.6-.7 1-1 2.7-1 5v4.5c0 2.2.3 3.9 1 5 .6 1 1.6 1.5 3 1.5s2.4-.5 3-1.5c.7-1 1-2.7 1-4.8v-4.5zM204 40.1l-2.1 2.6V50h-5.2V24.4h5.2v11.2l1.6-2.8 4.8-8.4h6.3l-7.3 11.3 7.4 14.3h-6l-4.8-9.9zM227.5 43.3c0-1-.3-1.8-.8-2.4a9 9 0 00-3-1.6c-2.5-1-4.4-2.1-5.5-3.5a6.9 6.9 0 01-1.7-4.6c0-2.1.8-3.9 2.3-5.2 1.6-1.3 3.5-2 5.9-2 1.5 0 3 .4 4.2 1 1.2.7 2.1 1.6 2.8 2.9.7 1.2 1 2.5 1 4h-5.2c0-1.1-.2-2-.7-2.7-.5-.6-1.3-1-2.2-1-1 0-1.6.4-2.1.9a3 3 0 00-.8 2.1c0 .7.3 1.4.8 2 .6.5 1.6 1.1 3 1.7 2.5 1 4.3 2 5.5 3.3 1.1 1.4 1.7 3 1.7 5 0 2.3-.7 4-2.2 5.3a8.4 8.4 0 01-5.7 1.9 10 10 0 01-4.6-1 7.7 7.7 0 01-4.3-7.5h5.2c0 1.5.3 2.6.8 3.2.6.7 1.6 1 2.9 1 1.8 0 2.7-.9 2.7-2.8zM254 50H249V39h-7.6v11H236V24.4h5.2v10.4h7.6V24.4h5.1V50zM271.4 39h-8v6.7h9.5V50h-14.7V24.4H273v4.3h-9.5v6h8V39zM281 45.7h9.1V50H276V24.4h5.2v21.3zM306.3 39.6h-8V50H293V24.4h14.2v4.3h-9v6.6h8v4.3zM145.3 86.8h-7l-1.4 5.2h-5.5l8-25.6h4.7l8 25.6h-5.5l-1.3-5.2zm-6-4.3h4.8l-2.4-9.2-2.3 9.2zM171.5 83.5c0 2.9-1 5.1-2.4 6.6a8.7 8.7 0 01-6.4 2.3c-3 0-5.1-1-6.7-2.9-1.5-2-2.3-4.6-2.3-8.2V77c0-3.5.8-6.2 2.4-8 1.6-2 3.8-3 6.6-3s5 .8 6.4 2.4c1.4 1.6 2.3 3.8 2.5 6.7h-5.2c0-1.8-.3-3-.9-3.7-.5-.7-1.4-1-2.8-1-1.3 0-2.3.4-2.9 1.4a10 10 0 00-.9 4.8v4.8c0 2.5.3 4.3.8 5.2.6 1 1.6 1.5 3 1.5 1.3 0 2.3-.4 2.8-1 .5-.7.8-1.9.9-3.6h5.1zM190.8 70.7h-6.4V92h-5.1V70.7H173v-4.3h17.8v4.3zM199.1 92H194V66.4h5.1V92zM221.5 81.5a12 12 0 01-2.5 8 8.4 8.4 0 01-6.7 2.9c-2.9 0-5.1-1-6.8-2.9a11.8 11.8 0 01-2.5-7.9v-4.3c0-3.6.8-6.3 2.5-8.3 1.6-2 3.9-3 6.8-3 2.8 0 5 1 6.7 3 1.6 2 2.5 4.6 2.5 8.1v4.4zm-5.2-4.3c0-2.3-.3-4-1-5.1a3.3 3.3 0 00-3-1.7c-1.4 0-2.4.5-3 1.6-.7 1-1 2.7-1.1 5v4.5c0 2.2.3 3.9 1 5 .7 1 1.7 1.5 3.1 1.5 1.3 0 2.3-.5 3-1.5.7-1 1-2.7 1-4.8v-4.5zM243.1 92h-5.2l-7.5-16.8V92h-5.2V66.4h5.2l7.5 16.8V66.4h5.2V92z" fill="#2C2C54"/></svg>
